<svg xmlns="http://www.w3.org/2000/svg" xmlns:xlink="http://www.w3.org/1999/xlink" width="59px" height="16px" viewBox="0 0 59 16"><title>Forbes</title><g id="Page-1" stroke="none" stroke-width="1" fill="none" fill-rule="evenodd"><g id="Our-Philosophy" transform="translate(-1088, -2963)" fill="#1C4B42" fill-rule="nonzero"><g id="Group-11" transform="translate(0, 2644)"><g id="Group-42" transform="translate(79, 74)"><g id="Group-6" transform="translate(1, 202)"><g id="Group-7-Copy-4" transform="translate(974, 0)"><g id="Group-22" transform="translate(12, 12)"><g id="Forbes" transform="translate(22, 31.8)"><polygon id="Path" points="2.7 2.54 2.7 6.82 8.12 6.82 8.12 8.97 2.7 8.97 2.7 14.86 0 14.86 0 0.4 9.12 0.4 9.12 2.54"></polygon><path d="M15.47,4.44 C16.23,4.44 16.9216667,4.56333333 17.545,4.81 C18.1683333,5.05666667 18.7016667,5.40666667 19.145,5.86 C19.5883333,6.31333333 19.93,6.86666667 20.17,7.52 C20.41,8.17333333 20.53,8.90333333 20.53,9.71 C20.53,10.5233333 20.41,11.2566667 20.17,11.91 C19.93,12.5633333 19.5883333,13.12 19.145,13.58 C18.7016667,14.04 18.1683333,14.3933333 17.545,14.64 C16.9216667,14.8866667 16.23,15.01 15.47,15.01 C14.7033333,15.01 14.0066667,14.8866667 13.38,14.64 C12.7533333,14.3933333 12.2183333,14.04 11.775,13.58 C11.3316667,13.12 10.9883333,12.5633333 10.745,11.91 C10.5016667,11.2566667 10.38,10.5233333 10.38,9.71 C10.38,8.90333333 10.5016667,8.17333333 10.745,7.52 C10.9883333,6.86666667 11.3316667,6.31333333 11.775,5.86 C12.2183333,5.40666667 12.7533333,5.05666667 13.38,4.81 C14.0066667,4.56333333 14.7033333,4.44 15.47,4.44 Z M15.47,13.11 C16.3233333,13.11 16.955,12.8233333 17.365,12.25 C17.775,11.6766667 17.98,10.8366667 17.98,9.73 C17.98,8.62333333 17.775,7.78 17.365,7.2 C16.955,6.62 16.3233333,6.33 15.47,6.33 C14.6033333,6.33 13.9616667,6.62166667 13.545,7.205 C13.1283333,7.78833333 12.92,8.63 12.92,9.73 C12.92,10.83 13.1283333,11.6683333 13.545,12.245 C13.9616667,12.8216667 14.6033333,13.11 15.47,13.11 Z" id="Shape"></path><path d="M24.75,6.38 C25.07,5.76666667 25.45,5.285 25.89,4.935 C26.33,4.585 26.85,4.41 27.45,4.41 C27.9233333,4.41 28.3033333,4.51333333 28.59,4.72 L28.43,6.57 C28.3966667,6.69 28.3483333,6.775 28.285,6.825 C28.2216667,6.875 28.1366667,6.9 28.03,6.9 C27.93,6.9 27.7816667,6.88333333 27.585,6.85 C27.3883333,6.81666667 27.1966667,6.8 27.01,6.8 C26.7366667,6.8 26.4933333,6.84 26.28,6.92 C26.0666667,7 25.875,7.115 25.705,7.265 C25.535,7.415 25.385,7.59666667 25.255,7.81 C25.125,8.02333333 25.0033333,8.26666667 24.89,8.54 L24.89,14.86 L22.42,14.86 L22.42,4.6 L23.87,4.6 C24.1233333,4.6 24.3,4.645 24.4,4.735 C24.5,4.825 24.5666667,4.98666667 24.6,5.22 L24.75,6.38 Z" id="Path"></path><path d="M32.35,12.2 C32.63,12.54 32.935,12.78 33.265,12.92 C33.595,13.06 33.9433333,13.13 34.31,13.13 C34.69,13.13 35.0316667,13.0616667 35.335,12.925 C35.6383333,12.7883333 35.8966667,12.575 36.11,12.285 C36.3233333,11.995 36.4866667,11.625 36.6,11.175 C36.7133333,10.725 36.77,10.1866667 36.77,9.56 C36.77,8.43333333 36.5833333,7.61833333 36.21,7.115 C35.8366667,6.61166667 35.3,6.36 34.6,6.36 C34.1266667,6.36 33.7133333,6.46833333 33.36,6.685 C33.0066667,6.90166667 32.67,7.20666667 32.35,7.6 L32.35,12.2 Z M32.35,5.86 C32.7633333,5.42666667 33.2216667,5.08166667 33.725,4.825 C34.2283333,4.56833333 34.8033333,4.44 35.45,4.44 C36.0433333,4.44 36.5783333,4.55666667 37.055,4.79 C37.5316667,5.02333333 37.9383333,5.35833333 38.275,5.795 C38.6116667,6.23166667 38.87,6.76 39.05,7.38 C39.23,8 39.32,8.69666667 39.32,9.47 C39.32,10.3033333 39.2166667,11.06 39.01,11.74 C38.8033333,12.42 38.5083333,13.0016667 38.125,13.485 C37.7416667,13.9683333 37.28,14.3433333 36.74,14.61 C36.2,14.8766667 35.6,15.01 34.94,15.01 C34.62,15.01 34.33,14.9783333 34.07,14.915 C33.81,14.8516667 33.57,14.7633333 33.35,14.65 C33.13,14.5366667 32.9283333,14.3983333 32.745,14.235 C32.5616667,14.0716667 32.3866667,13.89 32.22,13.69 L32.11,14.38 C32.07,14.5533333 32.0016667,14.6766667 31.905,14.75 C31.8083333,14.8233333 31.6766667,14.86 31.51,14.86 L29.88,14.86 L29.88,0 L32.35,0 L32.35,5.86 Z" id="Shape"></path><path d="M47.84,8.55 C47.84,8.23 47.795,7.92833333 47.705,7.645 C47.615,7.36166667 47.48,7.11333333 47.3,6.9 C47.12,6.68666667 46.8916667,6.51833333 46.615,6.395 C46.3383333,6.27166667 46.0166667,6.21 45.65,6.21 C44.9366667,6.21 44.375,6.41333333 43.965,6.82 C43.555,7.22666667 43.2933333,7.80333333 43.18,8.55 L47.84,8.55 Z M43.13,10.04 C43.17,10.5666667 43.2633333,11.0216667 43.41,11.405 C43.5566667,11.7883333 43.75,12.105 43.99,12.355 C44.23,12.605 44.515,12.7916667 44.845,12.915 C45.175,13.0383333 45.54,13.1 45.94,13.1 C46.34,13.1 46.685,13.0533333 46.975,12.96 C47.265,12.8666667 47.5183333,12.7633333 47.735,12.65 C47.9516667,12.5366667 48.1416667,12.4333333 48.305,12.34 C48.4683333,12.2466667 48.6266667,12.2 48.78,12.2 C48.9866667,12.2 49.14,12.2766667 49.24,12.43 L49.95,13.33 C49.6766667,13.65 49.37,13.9183333 49.03,14.135 C48.69,14.3516667 48.335,14.525 47.965,14.655 C47.595,14.785 47.2183333,14.8766667 46.835,14.93 C46.4516667,14.9833333 46.08,15.01 45.72,15.01 C45.0066667,15.01 44.3433333,14.8916667 43.73,14.655 C43.1166667,14.4183333 42.5833333,14.0683333 42.13,13.605 C41.6766667,13.1416667 41.32,12.5683333 41.06,11.885 C40.8,11.2016667 40.67,10.41 40.67,9.51 C40.67,8.81 40.7833333,8.15166667 41.01,7.535 C41.2366667,6.91833333 41.5616667,6.38166667 41.985,5.925 C42.4083333,5.46833333 42.925,5.10666667 43.535,4.84 C44.145,4.57333333 44.8333333,4.44 45.6,4.44 C46.2466667,4.44 46.8433333,4.54333333 47.39,4.75 C47.9366667,4.95666667 48.4066667,5.25833333 48.8,5.655 C49.1933333,6.05166667 49.5016667,6.53833333 49.725,7.115 C49.9483333,7.69166667 50.06,8.35 50.06,9.09 C50.06,9.46333333 50.02,9.715 49.94,9.845 C49.86,9.975 49.7066667,10.04 49.48,10.04 L43.13,10.04 Z" id="Shape"></path><path d="M58.17,6.6 C58.1033333,6.70666667 58.0333333,6.78166667 57.96,6.825 C57.8866667,6.86833333 57.7933333,6.89 57.68,6.89 C57.56,6.89 57.4316667,6.85666667 57.295,6.79 C57.1583333,6.72333333 57,6.64833333 56.82,6.565 C56.64,6.48166667 56.435,6.40666667 56.205,6.34 C55.975,6.27333333 55.7033333,6.24 55.39,6.24 C54.9033333,6.24 54.5216667,6.34333333 54.245,6.55 C53.9683333,6.75666667 53.83,7.02666667 53.83,7.36 C53.83,7.58 53.9016667,7.765 54.045,7.915 C54.1883333,8.065 54.3783333,8.19666667 54.615,8.31 C54.8516667,8.42333333 55.12,8.525 55.42,8.615 C55.72,8.705 56.025,8.80333333 56.335,8.91 C56.645,9.01666667 56.95,9.13833333 57.25,9.275 C57.55,9.41166667 57.8183333,9.585 58.055,9.795 C58.2916667,10.005 58.4816667,10.2566667 58.625,10.55 C58.7683333,10.8433333 58.84,11.1966667 58.84,11.61 C58.84,12.1033333 58.7516667,12.5583333 58.575,12.975 C58.3983333,13.3916667 58.1366667,13.7516667 57.79,14.055 C57.4433333,14.3583333 57.015,14.595 56.505,14.765 C55.995,14.935 55.4066667,15.02 54.74,15.02 C54.3866667,15.02 54.0416667,14.9883333 53.705,14.925 C53.3683333,14.8616667 53.045,14.7733333 52.735,14.66 C52.425,14.5466667 52.1383333,14.4133333 51.875,14.26 C51.6116667,14.1066667 51.38,13.94 51.18,13.76 L51.75,12.82 C51.8233333,12.7066667 51.91,12.62 52.01,12.56 C52.11,12.5 52.2366667,12.47 52.39,12.47 C52.5433333,12.47 52.6883333,12.5133333 52.825,12.6 C52.9616667,12.6866667 53.12,12.78 53.3,12.88 C53.48,12.98 53.6916667,13.0733333 53.935,13.16 C54.1783333,13.2466667 54.4866667,13.29 54.86,13.29 C55.1533333,13.29 55.405,13.255 55.615,13.185 C55.825,13.115 55.9983333,13.0233333 56.135,12.91 C56.2716667,12.7966667 56.3716667,12.665 56.435,12.515 C56.4983333,12.365 56.53,12.21 56.53,12.05 C56.53,11.81 56.4583333,11.6133333 56.315,11.46 C56.1716667,11.3066667 55.9816667,11.1733333 55.745,11.06 C55.5083333,10.9466667 55.2383333,10.845 54.935,10.755 C54.6316667,10.665 54.3216667,10.5666667 54.005,10.46 C53.6883333,10.3533333 53.3783333,10.2283333 53.075,10.085 C52.7716667,9.94166667 52.5016667,9.76 52.265,9.54 C52.0283333,9.32 51.8383333,9.05 51.695,8.73 C51.5516667,8.41 51.48,8.02333333 51.48,7.57 C51.48,7.15 51.5633333,6.75 51.73,6.37 C51.8966667,5.99 52.1416667,5.65833333 52.465,5.375 C52.7883333,5.09166667 53.1916667,4.865 53.675,4.695 C54.1583333,4.525 54.7166667,4.44 55.35,4.44 C56.0566667,4.44 56.7,4.55666667 57.28,4.79 C57.86,5.02333333 58.3433333,5.33 58.73,5.71 L58.17,6.6 Z" id="Path"></path></g></g></g></g></g></g></g></g></svg>