<svg xmlns="http://www.w3.org/2000/svg" height="20" viewBox="0 0 20 20" width="20"><g fill="none"><path d="M20 10.22a8.4 8.4 0 0 0-.22-2.04H10.2v3.7h5.63a4.87 4.87 0 0 1-2.09 3.25l-.02.13 3.03 2.3.21.02A9.68 9.68 0 0 0 20 10.22" fill="#4285f4"></path><path d="M10.2 20c2.76 0 5.07-.89 6.76-2.42l-3.22-2.45c-.86.6-2.02 1-3.54 1a6.13 6.13 0 0 1-5.8-4.15h-.12l-3.15 2.4-.04.1A10.22 10.22 0 0 0 10.2 20" fill="#34a853"></path><path d="M4.4 11.98a6.05 6.05 0 0 1-.01-3.96V7.9l-3.2-2.43-.1.05a9.85 9.85 0 0 0 0 8.98z" fill="#fbbc05"></path><path d="M10.2 3.87c1.92 0 3.21.8 3.95 1.49l2.88-2.76A9.91 9.91 0 0 0 10.2 0C6.21 0 2.77 2.24 1.1 5.51l3.3 2.51a6.16 6.16 0 0 1 5.81-4.15" fill="#eb4335"></path></g></svg>