<svg xmlns="http://www.w3.org/2000/svg" width="81" height="13" viewBox="0 0 81 13"><path d="M.94 0c.14 0 .29.04.45.1.15.08.27.18.36.31l4.57 6.97-.78-.04L10.21.41c.19-.27.43-.41.73-.41a.9.9 0 0 1 .64.26c.19.17.28.4.28.66V11.7a.9.9 0 0 1-.25.66.88.88 0 0 1-.67.26.9.9 0 0 1-.95-.92V2.57l.58.13L6.6 8.73c-.09.1-.2.2-.33.28a.69.69 0 0 1-.41.1.69.69 0 0 1-.4-.1 1.1 1.1 0 0 1-.34-.28L1.31 2.79l.44-.72v9.63c0 .26-.08.48-.25.66a.83.83 0 0 1-.64.26.81.81 0 0 1-.62-.26.93.93 0 0 1-.24-.66V.92C0 .67.1.45.28.27.46.09.68 0 .94 0ZM19 12.8c-1 0-1.86-.2-2.6-.62a4.36 4.36 0 0 1-1.7-1.71c-.4-.73-.6-1.56-.6-2.5 0-1.05.21-1.96.64-2.7.43-.75.98-1.33 1.67-1.73a4.23 4.23 0 0 1 5.26.72 4.62 4.62 0 0 1 1.36 3.28.8.8 0 0 1-.29.6.93.93 0 0 1-.63.23h-7l-.43-1.53h6.77l-.35.32v-.45a1.91 1.91 0 0 0-.41-1.1 2.73 2.73 0 0 0-2.1-1c-.37 0-.71.05-1.04.17-.33.11-.63.3-.88.55-.26.25-.46.58-.61 1a4.56 4.56 0 0 0 .18 3.26 2.96 2.96 0 0 0 2.67 1.55c.44 0 .8-.04 1.1-.13.28-.1.52-.2.72-.34.19-.13.36-.25.5-.37.18-.11.36-.17.54-.17.22 0 .4.08.54.23.14.15.22.33.22.53 0 .26-.14.5-.4.72-.32.31-.77.59-1.34.83-.57.24-1.17.36-1.8.36Zm5.94-9.54h4.23a.82.82 0 0 1 .85.85c0 .22-.09.41-.25.57a.84.84 0 0 1-.6.23h-4.23a.82.82 0 0 1-.6-.24.8.8 0 0 1-.25-.58c0-.24.08-.44.24-.6a.84.84 0 0 1 .6-.23ZM26.84.92c.26 0 .48.08.65.26.16.17.25.4.25.66v8.35c0 .21.03.39.1.52.08.13.18.22.3.27.13.05.26.07.39.07s.25-.02.35-.07c.1-.05.23-.07.37-.07.14 0 .28.06.4.2.12.13.18.3.18.54 0 .28-.16.52-.47.7-.31.18-.65.27-1.01.27-.2 0-.44-.02-.72-.06a2.22 2.22 0 0 1-.8-.27 1.64 1.64 0 0 1-.64-.69 2.91 2.91 0 0 1-.25-1.34V1.84a.9.9 0 0 1 .9-.92ZM39.78 3c.26 0 .48.08.65.26.17.17.25.39.25.65v7.78a.9.9 0 0 1-.25.66.86.86 0 0 1-.65.26.9.9 0 0 1-.9-.92v-1.3l.38.06c0 .21-.09.45-.26.72a3.97 3.97 0 0 1-1.77 1.38 4.03 4.03 0 0 1-3.55-.4 4.5 4.5 0 0 1-1.57-1.76 5.45 5.45 0 0 1-.57-2.53c0-.98.19-1.83.57-2.57.39-.74.9-1.32 1.56-1.74a3.96 3.96 0 0 1 2.19-.63 3.96 3.96 0 0 1 3.32 1.74c.17.3.26.57.26.84l-.56.05V3.92a.9.9 0 0 1 .26-.64.85.85 0 0 1 .64-.27Zm-3.67 8.13c.56 0 1.06-.14 1.5-.43a2.9 2.9 0 0 0 1-1.18c.24-.5.36-1.05.36-1.66 0-.63-.12-1.19-.36-1.68a2.9 2.9 0 0 0-1-1.17 2.63 2.63 0 0 0-1.5-.43c-.55 0-1.04.14-1.47.43a3 3 0 0 0-1 1.17 3.7 3.7 0 0 0-.38 1.68c0 .6.13 1.16.37 1.66.25.5.59.9 1.01 1.18.43.29.92.43 1.47.43ZM49.34 0c.14 0 .3.04.45.1.15.08.27.18.36.31l4.57 6.97-.77-.04L58.6.41c.19-.27.44-.41.74-.41a.9.9 0 0 1 .63.26c.2.17.28.4.28.66V11.7a.9.9 0 0 1-.25.66.88.88 0 0 1-.66.26.9.9 0 0 1-.95-.92V2.57l.57.13L55 8.73c-.09.1-.2.2-.33.28a.69.69 0 0 1-.41.1.69.69 0 0 1-.4-.1 1.1 1.1 0 0 1-.34-.28l-3.81-5.94.43-.72v9.63c0 .26-.08.48-.24.66a.83.83 0 0 1-.64.26.81.81 0 0 1-.63-.26.93.93 0 0 1-.24-.66V.92c0-.25.1-.47.28-.65.19-.18.4-.27.66-.27ZM67.4 12.8c-1 0-1.86-.2-2.6-.62a4.36 4.36 0 0 1-1.7-1.71c-.4-.73-.6-1.56-.6-2.5 0-1.05.22-1.96.64-2.7.43-.75.98-1.33 1.67-1.73a4.23 4.23 0 0 1 5.26.72 4.62 4.62 0 0 1 1.36 3.28.8.8 0 0 1-.29.6.93.93 0 0 1-.63.23h-7l-.43-1.53h6.77l-.34.32v-.45a1.91 1.91 0 0 0-.42-1.1 2.73 2.73 0 0 0-2.1-1c-.36 0-.7.05-1.04.17-.33.11-.62.3-.88.55-.26.25-.46.58-.61 1a4.56 4.56 0 0 0 .19 3.26 2.96 2.96 0 0 0 2.66 1.55c.44 0 .81-.04 1.1-.13.29-.1.53-.2.72-.34.19-.13.36-.25.5-.37.18-.11.36-.17.54-.17.22 0 .4.08.54.23.15.15.22.33.22.53 0 .26-.13.5-.4.72-.32.31-.77.59-1.34.83-.57.24-1.17.36-1.79.36Zm6.1-9.7c.3 0 .55.12.74.37l6.14 7.74a.84.84 0 0 1-.09 1.17.9.9 0 0 1-.63.27.92.92 0 0 1-.74-.37l-6.14-7.74a.81.81 0 0 1-.2-.54c0-.26.1-.47.28-.64a.9.9 0 0 1 .64-.26Zm.02 9.55c-.2 0-.4-.07-.6-.23a.72.72 0 0 1-.28-.58c0-.2.07-.39.21-.55l2.87-3.55.91 1.48-2.39 3.06a.87.87 0 0 1-.72.37Zm6.12-9.55c.25 0 .46.08.62.24.16.16.24.35.24.57 0 .1-.01.2-.04.3-.03.1-.09.19-.17.27l-2.83 3.55-.93-1.33 2.39-3.19c.2-.28.44-.41.72-.41Z" fill="#1C4B42" fill-rule="nonzero"></path></svg>